<!-- Copyright (c) 2026 zzz27578 and CentDeck contributors. | SPDX-License-Identifier: AGPL-3.0-only -->
<svg xmlns="http://www.w3.org/2000/svg" viewBox="0 0 1400 1000"><defs><linearGradient id="sky" x2="0" y2="1"><stop stop-color="#bfc9c9"/><stop offset="1" stop-color="#e0e4df"/></linearGradient><linearGradient id="concrete" x2="1" y2="1"><stop stop-color="#dfdfd3"/><stop offset="1" stop-color="#a5a798"/></linearGradient><pattern id="panels" width="70" height="55" patternUnits="userSpaceOnUse"><path d="M0 0h70v55" stroke="#808879" stroke-width="1" opacity=".22" fill="none"/></pattern><filter id="grain"><feTurbulence type="fractalNoise" baseFrequency=".8" numOctaves="3" stitchTiles="stitch"/><feColorMatrix type="saturate" values="0"/><feComponentTransfer><feFuncA type="linear" slope=".05"/></feComponentTransfer><feBlend in="SourceGraphic" mode="multiply"/></filter></defs><g filter="url(#grain)"><path fill="url(#sky)" d="M0 0h1400v1000H0z"/><path d="M0 636 900 584l500 125v291H0Z" fill="#bebfb1"/><path d="m113 746 812 154 475-218-878-112Z" fill="#89917f"/><path d="m246 493 618-99 267 109v231l-618 111-267-115Z" fill="#5a6858"/><path d="m513 609 618-106v231L513 845Z" fill="#536552"/><path d="m246 493 267 116v236L246 730Z" fill="#a9af96"/><path d="m519 458 495-77 140 94-500 79Z" fill="#e0e0ca"/><path d="m203 462 302-49 147 142-162 56-287-119Z" fill="#dfdece"/><path d="m652 554 502-79v49l-502 91Z" fill="#b5b79e"/><path d="m203 492 287 119v44L203 536Z" fill="#b8b99e"/><path d="m552 632 536-92v186l-536 95Z" fill="#94a796"/><path d="M610 624v187m83-200v181m83-195v181m83-196v179m83-193v179m83-194v180" stroke="#3b5040" stroke-width="14"/><path d="m289 548 154 65v157l-154-64Z" fill="#334633"/><path d="m693 663 84-13v127l-84 15Z" fill="#c7bd9c"/><path d="m742 460 26 12v199m-74-177 116 29m-84-86 5-87" stroke="#3f5840" stroke-width="10"/><ellipse cx="742" cy="398" rx="132" ry="102" fill="#647957"/><ellipse cx="700" cy="418" rx="102" ry="67" fill="#7b8d61"/><path d="m304 812 184 75 640-126-75-22-564 93-127-48Z" fill="#d9dbc4"/><path d="M90 934c39-122 151-165 218-122s68 56 122 95" fill="#5c7756"/></g></svg>
